HIERARCHY
ROOT Hips
{
  OFFSET 50.9112 96.0207 -12.4206
  CHANNELS 6 Xposition Yposition Zposition Zrotation Xrotation Yrotation
  JOINT spine
  {
    OFFSET 0 8.13249 0.467659
    CHANNELS 3 Zrotation Xrotation Yrotation
    JOINT spine1
    {
      OFFSET 0 10.3498 0
      CHANNELS 3 Zrotation Xrotation Yrotation
      JOINT spine2
      {
        OFFSET 0 9.91699 0
        CHANNELS 3 Zrotation Xrotation Yrotation
        JOINT Neck
        {
          OFFSET 0 25.461 1.2139
          CHANNELS 3 Zrotation Xrotation Yrotation
          JOINT Head
          {
            OFFSET 0 7.69245 0
            CHANNELS 3 Zrotation Xrotation Yrotation
            End Site
            {
              OFFSET 0 18.62 -6.14063
            }
          }
        }
        JOINT RightShoulder
        {
          OFFSET -4.17575 10.7096 -0.581445
          CHANNELS 3 Zrotation Xrotation Yrotation
          JOINT RightArm
          {
            OFFSET 0 14.0466 0
            CHANNELS 3 Zrotation Xrotation Yrotation
            JOINT RightArmRoll
            {
              OFFSET 0 7.09098 0
              CHANNELS 3 Zrotation Xrotation Yrotation
              JOINT RightForeArm
              {
                OFFSET 0 20.6535 0
                CHANNELS 3 Zrotation Xrotation Yrotation
                JOINT RightForeArmRoll
                {
                  OFFSET 0 7.95718 0
                  CHANNELS 3 Zrotation Xrotation Yrotation
                  JOINT RightHand
                  {
                    OFFSET 0 15.9683 0
                    CHANNELS 3 Zrotation Xrotation Yrotation
                    End Site
                    {
                      OFFSET 0 0 0
                    }
                  }
                }
              }
            }
          }
        }
        JOINT LeftShoulder
        {
          OFFSET 4.17575 10.7096 -0.581445
          CHANNELS 3 Zrotation Xrotation Yrotation
          JOINT LeftArm
          {
            OFFSET 0 14.0466 0
            CHANNELS 3 Zrotation Xrotation Yrotation
            JOINT LeftArmRoll
            {
              OFFSET 0 7.09099 0
              CHANNELS 3 Zrotation Xrotation Yrotation
              JOINT LeftForeArm
              {
                OFFSET 0 20.6535 0
                CHANNELS 3 Zrotation Xrotation Yrotation
                JOINT LeftForeArmRoll
                {
                  OFFSET 0 7.95718 0
                  CHANNELS 3 Zrotation Xrotation Yrotation
                  JOINT LeftHand
                  {
                    OFFSET 0 15.9683 0
                    CHANNELS 3 Zrotation Xrotation Yrotation
                    End Site
                    {
                      OFFSET 0 0 0
                    }
                  }
                }
              }
            }
          }
        }
      }
    }
  }
  JOINT RightUpLeg
  {
    OFFSET -7.20834 -1.32182 -1.10884
    CHANNELS 3 Zrotation Xrotation Yrotation
    JOINT RightUpLegRoll
    {
      OFFSET 0 18.7238 0
      CHANNELS 3 Zrotation Xrotation Yrotation
      JOINT RightLeg
      {
        OFFSET 0 -23.1866 0
        CHANNELS 3 Zrotation Xrotation Yrotation
        JOINT RightLegRoll
        {
          OFFSET 0 23.2624 0
          CHANNELS 3 Zrotation Xrotation Yrotation
          JOINT RightFoot
          {
            OFFSET 0 19.3621 0
            CHANNELS 3 Zrotation Xrotation Yrotation
            JOINT RightToeBase
            {
              OFFSET 0 16.1857 0
              CHANNELS 3 Zrotation Xrotation Yrotation
              End Site
              {
                OFFSET 0.00686052 7.83862 -0.903522
              }
            }
          }
        }
      }
    }
  }
  JOINT LeftUpLeg
  {
    OFFSET 7.20834 -1.32182 -1.10884
    CHANNELS 3 Zrotation Xrotation Yrotation
    JOINT LeftUpLegRoll
    {
      OFFSET 0 18.7239 0
      CHANNELS 3 Zrotation Xrotation Yrotation
      JOINT LeftLeg
      {
        OFFSET 0 23.1865 0
        CHANNELS 3 Zrotation Xrotation Yrotation
        JOINT LeftLegRoll
        {
          OFFSET 0 23.4775 0
          CHANNELS 3 Zrotation Xrotation Yrotation
          JOINT LeftFoot
          {
            OFFSET 0 19.147 0
            CHANNELS 3 Zrotation Xrotation Yrotation
            JOINT LeftToeBase
            {
              OFFSET 0 16.1857 0
              CHANNELS 3 Zrotation Xrotation Yrotation
              End Site
              {
                OFFSET -0.0307459 7.83863 -0.903522
              }
            }
          }
        }
      }
    }
  }
}
MOTION
Frames: 9
Frame Time: 0.00208333
52.1272 96.0378 6.36637 -0.695156 -2.10869 1.14639 0.363683 -0.157906 0.179761 0.719162 3.68794 0.331574 0.716282 5.33293 0.319785 -1.64174 14.7465 -4.3529 1.46569 0.713629 -4.71256 56.4733 -10.3957 -6.47269 117.667 19.5759 6.49283 -1.71069e-005 1.49936e-006 -3.11418e-006 12.8694 12.5616 -2.33223 -5.51995e-006 -8.83022e-006 -3.01051 8.02887 -4.95141 0.697681 -57.4484 -7.65011 4.70267 -113.501 16.8241 -2.08033 7.40136e-006 -5.18178e-007 3.14964e-006 -10.3009 9.47501 1.54126 5.98026e-006 7.29195e-007 3.00033 -8.02895 -4.95143 -0.697683 174.394 3.60932 3.55561 180 7.01574e-015 179.048 177.208 10.1801 179.842 2.31271e-006 7.68175e-007 0.00923748 -16.3568 67.5507 19.1799 8.12761 25.237 -3.47859 -173.397 2.6585 -1.11403 4.54188e-006 -4.6773e-006 -0.849112 -0.888161 -11.8073 0.564148 2.69008e-006 -6.75328e-007 -0.0222492 16.7367 70.22 -21.3227 -8.12735 25.2332 3.48384 
52.1313 96.037 6.36417 -0.699389 -2.11429 1.14159 0.364033 -0.155183 0.180177 0.720619 3.69335 0.331011 0.717743 5.33835 0.319202 -1.63424 14.7473 -4.35212 1.44946 0.714019 -4.71121 56.4832 -10.3912 -6.46973 117.681 19.6163 6.44892 -1.71069e-005 1.49936e-006 -3.11418e-006 12.8777 12.5776 -2.33523 -5.51995e-006 -8.83022e-006 -3.01051 8.02887 -4.95141 0.697681 -57.449 -7.65076 4.7031 -113.527 16.8669 -2.00913 7.40136e-006 -5.18178e-007 3.14964e-006 -10.3145 9.51945 1.54407 5.98026e-006 7.29195e-007 3.00033 -8.02895 -4.95143 -0.697683 174.399 3.59436 3.55419 180 7.01574e-015 179.048 177.207 10.1618 179.841 2.31271e-006 7.68175e-007 0.00863328 -16.347 67.5397 19.1719 8.12761 25.237 -3.47859 -173.393 2.65359 -1.11968 4.54188e-006 -4.6773e-006 -0.849136 -0.891121 -11.8111 0.563663 2.69008e-006 -6.75328e-007 -0.0222492 16.7383 70.2224 -21.3254 -8.12735 25.2332 3.48384 
52.1367 96.0385 6.36538 -0.703514 -2.12028 1.13689 0.36433 -0.152331 0.180667 0.722071 3.69901 0.330548 0.719197 5.34401 0.318718 -1.62662 14.7469 -4.3515 1.43313 0.71545 -4.71 56.4931 -10.3872 -6.46705 117.695 19.6569 6.40383 -1.71069e-005 1.49936e-006 -3.11418e-006 12.8865 12.5947 -2.33843 -5.51995e-006 -8.83022e-006 -3.01051 8.02887 -4.95141 0.697681 -57.4493 -7.65104 4.70328 -113.554 16.9101 -1.93747 7.40136e-006 -5.18178e-007 3.14964e-006 -10.328 9.5637 1.54685 5.98026e-006 7.29195e-007 3.00033 -8.02895 -4.95143 -0.697683 174.403 3.57862 3.55311 180 7.01574e-015 179.048 177.206 10.143 179.841 2.31271e-006 7.68175e-007 0.00801156 -16.337 67.5284 19.1636 8.12761 25.237 -3.47859 -173.388 2.64808 -1.12525 4.54188e-006 -4.6773e-006 -0.849173 -0.894067 -11.8145 0.563157 2.69008e-006 -6.75328e-007 -0.0222492 16.7398 70.2247 -21.3279 -8.12735 25.2332 3.48384 
52.132 96.0373 6.36115 -0.707562 -2.12653 1.13224 0.364589 -0.149389 0.181207 0.723519 3.70484 0.330154 0.720647 5.34984 0.318303 -1.6189 14.7457 -4.35099 1.41671 0.717609 -4.70889 56.503 -10.3835 -6.46457 117.709 19.6974 6.35791 -1.71069e-005 1.49936e-006 -3.11418e-006 12.8958 12.6126 -2.34179 -5.51995e-006 -8.83022e-006 -3.01051 8.02887 -4.95141 0.697681 -57.4493 -7.65107 4.70329 -113.581 16.9536 -1.86548 7.40136e-006 -5.18178e-007 3.14964e-006 -10.3416 9.60783 1.54961 5.98026e-006 7.29195e-007 3.00033 -8.02895 -4.95143 -0.697683 174.407 3.56233 3.55228 180 7.01574e-015 179.048 177.204 10.1237 179.84 2.31271e-006 7.68175e-007 0.00737758 -16.3271 67.5168 19.1552 8.12761 25.237 -3.47859 -173.384 2.64216 -1.13076 4.54188e-006 -4.6773e-006 -0.849217 -0.897003 -11.8176 0.562635 2.69008e-006 -6.75328e-007 -0.0222492 16.7413 70.2268 -21.3303 -8.12735 25.2332 3.48384 
52.1282 96.038 6.36118 -0.711568 -2.13293 1.12762 0.364827 -0.146394 0.181776 0.724964 3.71077 0.329799 0.722093 5.35577 0.317928 -1.61112 14.7441 -4.35055 1.40025 0.720184 -4.70783 56.513 -10.3799 -6.46221 117.723 19.738 6.31151 -1.71069e-005 1.49936e-006 -3.11418e-006 12.9054 12.631 -2.34523 -5.51995e-006 -8.83022e-006 -3.01051 8.02887 -4.95141 0.697681 -57.4493 -7.65096 4.70321 -113.608 16.9974 -1.79327 7.40136e-006 -5.18178e-007 3.14964e-006 -10.3551 9.65187 1.55236 5.98026e-006 7.29195e-007 3.00033 -8.02895 -4.95143 -0.697683 174.41 3.54572 3.55158 180 7.01574e-015 179.048 177.202 10.1042 179.84 2.31271e-006 7.68175e-007 0.00673659 -16.3171 67.5052 19.1468 8.12761 25.237 -3.47859 -173.38 2.636 -1.13623 4.54188e-006 -4.6773e-006 -0.849267 -0.899933 -11.8205 0.562105 2.69008e-006 -6.75328e-007 -0.0222492 16.7429 70.2289 -21.3326 -8.12735 25.2332 3.48384 
52.1303 96.0408 6.3693 -0.715564 -2.13937 1.12302 0.36506 -0.143387 0.182352 0.726409 3.71672 0.329454 0.723539 5.36172 0.317562 -1.60334 14.7423 -4.35012 1.38378 0.722864 -4.70678 56.523 -10.3764 -6.45988 117.738 19.7786 6.26497 -1.71069e-005 1.49936e-006 -3.11418e-006 12.915 12.6495 -2.34869 -5.51995e-006 -8.83022e-006 -3.01051 8.02887 -4.95141 0.697681 -57.4492 -7.6508 4.7031 -113.636 17.0411 -1.72099 7.40136e-006 -5.18178e-007 3.14964e-006 -10.3687 9.6959 1.5551 5.98026e-006 7.29195e-007 3.00033 -8.02895 -4.95143 -0.697683 174.414 3.52904 3.55092 180 7.01574e-015 179.048 177.201 10.0846 179.839 2.31271e-006 7.68175e-007 0.00609385 -16.3071 67.4935 19.1384 8.12761 25.237 -3.47859 -173.377 2.62978 -1.1417 4.54188e-006 -4.6773e-006 -0.849318 -0.902862 -11.8235 0.561572 2.69008e-006 -6.75328e-007 -0.0222492 16.7445 70.231 -21.3349 -8.12735 25.2332 3.48384 
52.1371 96.0395 6.36652 -0.719582 -2.14573 1.11839 0.365303 -0.140406 0.182914 0.727855 3.72263 0.32909 0.724986 5.36762 0.317177 -1.59558 14.7408 -4.34966 1.36733 0.725335 -4.7057 56.533 -10.3728 -6.45749 117.752 19.8192 6.21864 -1.71069e-005 1.49936e-006 -3.11418e-006 12.9244 12.6677 -2.35211 -5.51995e-006 -8.83022e-006 -3.01051 8.02887 -4.95141 0.697681 -57.4492 -7.65073 4.70304 -113.664 17.0848 -1.64876 7.40136e-006 -5.18178e-007 3.14964e-006 -10.3822 9.73997 1.55786 5.98026e-006 7.29195e-007 3.00033 -8.02895 -4.95143 -0.697683 174.418 3.51251 3.5502 180 7.01574e-015 179.048 177.199 10.0652 179.838 2.31271e-006 7.68175e-007 0.00545462 -16.2971 67.4819 19.1299 8.12761 25.237 -3.47859 -173.373 2.62367 -1.14718 4.54188e-006 -4.6773e-006 -0.849366 -0.905795 -11.8265 0.561044 2.69008e-006 -6.75328e-007 -0.0222492 16.7461 70.2331 -21.3373 -8.12735 25.2332 3.48384 
52.1326 96.0373 6.35569 -0.723657 -2.1519 1.11373 0.365573 -0.137489 0.183439 0.729305 3.72841 0.328676 0.726438 5.37341 0.316743 -1.58789 14.7398 -4.34912 1.35094 0.727286 -4.70456 56.543 -10.369 -6.45495 117.767 19.8597 6.17288 -1.71069e-005 1.49936e-006 -3.11418e-006 12.9336 12.6854 -2.35542 -5.51995e-006 -8.83022e-006 -3.01051 8.02887 -4.95141 0.697681 -57.4493 -7.65083 4.7031 -113.691 17.1282 -1.57672 7.40136e-006 -5.18178e-007 3.14964e-006 -10.3958 9.78413 1.56063 5.98026e-006 7.29195e-007 3.00033 -8.02895 -4.95143 -0.697683 174.422 3.49638 3.54929 180 7.01574e-015 179.048 177.197 10.046 179.838 2.31271e-006 7.68175e-007 0.00482414 -16.2872 67.4704 19.1217 8.12761 25.237 -3.47859 -173.369 2.61787 -1.15271 4.54188e-006 -4.6773e-006 -0.849409 -0.908734 -11.8297 0.560526 2.69008e-006 -6.75328e-007 -0.0222492 16.7476 70.2353 -21.3397 -8.12735 25.2332 3.48384 
52.1317 96.0322 6.35784 -0.72782 -2.15777 1.10899 0.365885 -0.134676 0.183907 0.730759 3.73399 0.328183 0.727894 5.37899 0.316229 -1.5803 14.7398 -4.34845 1.33464 0.728405 -4.70331 56.5529 -10.3648 -6.45219 117.781 19.9001 6.12802 -1.71069e-005 1.49936e-006 -3.11418e-006 12.9423 12.7022 -2.35857 -5.51995e-006 -8.83022e-006 -3.01051 8.02887 -4.95141 0.697681 -57.4496 -7.65122 4.70335 -113.718 17.1711 -1.505 7.40136e-006 -5.18178e-007 3.14964e-006 -10.4094 9.82844 1.56343 5.98026e-006 7.29195e-007 3.00033 -8.02895 -4.95143 -0.697683 174.426 3.48087 3.54812 180 7.01574e-015 179.048 177.196 10.0274 179.837 2.31271e-006 7.68175e-007 0.00420767 -16.2773 67.4592 19.1135 8.12761 25.237 -3.47859 -173.364 2.61254 -1.1583 4.54188e-006 -4.6773e-006 -0.849442 -0.911684 -11.8332 0.560026 2.69008e-006 -6.75328e-007 -0.0222492 16.7491 70.2376 -21.3423 -8.12735 25.2332 3.48384 
